<svg xmlns="http://www.w3.org/2000/svg" viewBox="0 0 96 101.4625" x="0px" y="0px"><g data-name="Layer 2"><g data-name="Layer 1"><path d="M90.29,74.64H5.71V72a42.29,42.29,0,0,1,84.58,0Zm-82.58-2H88.29V72A40.29,40.29,0,0,0,7.71,72Z"/><path d="M91.72,81.17H4.27a4.27,4.27,0,1,1,0-8.53H91.72a4.27,4.27,0,1,1,0,8.53ZM4.27,74.64a2.27,2.27,0,1,0,0,4.53H91.72a2.26,2.26,0,0,0,1.61-3.86,2.3,2.3,0,0,0-1.61-.67Z"/><path d="M53,31.79l-1.17-1.62a6.47,6.47,0,1,0-7.64,0L43,31.79a8.47,8.47,0,1,1,10,0Z"/><path d="M80.62,30.75a1,1,0,0,1-.8-.4A1,1,0,0,1,80,29c.14-.11,2.94-2.37.56-6.64l-4.45-8.07,0-.06c-.24-.49-2.71-5.85,1.2-9.7a1,1,0,0,1,1.41,0,1,1,0,0,1,0,1.42c-3,2.93-.89,7.22-.8,7.4h0l4.41,8c2.61,4.67.43,8.06-1.09,9.2A1,1,0,0,1,80.62,30.75Z"/><path d="M66.86,26.55a1,1,0,0,1-.61-1.8c.14-.1,2.94-2.36.56-6.64l-4.44-8,0-.06c-.12-.23-2.82-5.77,1.19-9.72a1,1,0,0,1,1.4,1.42c-3,2.94-.89,7.23-.8,7.41l4.42,8c2.61,4.67.43,8.07-1.09,9.21A1,1,0,0,1,66.86,26.55Z"/><path d="M15.74,30.75a1,1,0,0,1-.6-.2c-1.52-1.14-3.7-4.53-1.09-9.21l4.42-8c.12-.24,2.15-4.49-.8-7.4a1,1,0,0,1,0-1.42,1,1,0,0,1,1.41,0c3.86,3.8,1.46,9.15,1.21,9.69l0,0L15.8,22.31c-2.39,4.29.43,6.55.55,6.65a1,1,0,0,1,.18,1.4A1,1,0,0,1,15.74,30.75Z"/><path d="M29.5,26.55a1,1,0,0,1-.6-.2c-1.52-1.14-3.69-4.54-1.09-9.21l4.44-8.06c.07-.14,2.15-4.43-.82-7.37A1,1,0,1,1,32.83.29c4,4,1.31,9.49,1.19,9.72l-4.46,8.1c-2.39,4.29.43,6.55.55,6.64a1,1,0,0,1,.18,1.4A1,1,0,0,1,29.5,26.55Z"/></g></g><text x="0" y="96.17" fill="#000000" font-size="5px" font-weight="bold" font-family="'Helvetica Neue', Helvetica, Arial-Unicode, Arial, Sans-serif">Created by Nico Bökenkröger</text><text x="0" y="101.17" fill="#000000" font-size="5px" font-weight="bold" font-family="'Helvetica Neue', Helvetica, Arial-Unicode, Arial, Sans-serif">from the Noun Project</text></svg>